<?xml version="1.0" encoding="utf-8"?>
<!-- Generator: Adobe Illustrator 24.3.0, SVG Export Plug-In . SVG Version: 6.00 Build 0)  -->
<svg version="1.1" id="Layer_1" xmlns="http://www.w3.org/2000/svg" xmlns:xlink="http://www.w3.org/1999/xlink" x="0px" y="0px"
	 viewBox="0 0 3000 3000" style="enable-background:new 0 0 3000 3000;" xml:space="preserve">
<style type="text/css">
	.st0{fill:#E6E7E8;}
	.st1{fill:#F1F2F2;}
	.st2{fill:#1E2138;}
	.st3{fill:#EEEEEE;}
	.st4{fill:#F69D98;}
	.st5{fill:#F48E8C;}
	.st6{fill:#CCCCCB;}
	.st7{fill:#D2916D;}
	.st8{fill:#CC7F62;}
	.st9{fill:#121212;}
	.st10{fill:#FFFFFF;}
	.st11{fill:#B3624F;}
	.st12{fill:#888EB0;}
	.st13{fill:#D3836A;}
	.st14{fill:#D1D3D4;}
	.st15{fill:#58595B;}
	.st16{fill:#6D6E71;}
	.st17{fill:#939598;}
	.st18{fill:#EB5857;}
	.st19{fill:#6C63AC;}
	.st20{fill:#414042;}
</style>
<g>
	<g>
		<path class="st0" d="M902.62,1990.71H802.39v1.31h1414.58v-1.31h-97.24v-345.89h97.24v-20.08h-97.24h-20.08h-179.43h-20.08
			h-179.43h-20.08h-179.43h-20.08h-179.43h-20.08h-179.43h-20.08H922.7h-20.08H802.39v20.08h100.24V1990.71z M1920.22,1644.82
			h179.43v345.89h-179.43V1644.82z M1720.72,1644.82h179.43v345.89h-179.43V1644.82z M1521.21,1644.82h179.43v345.89h-179.43
			V1644.82z M1321.71,1644.82h179.43v345.89h-179.43V1644.82z M1122.21,1644.82h179.43v345.89h-179.43V1644.82z M922.7,1644.82
			h179.43v345.89H922.7V1644.82z"/>
		<path class="st1" d="M2261.58,1992.02V855.12V457.34V335.88H757.78v149.17v397.58v1109.39H618.21v131.37h1782.93v-131.37H2261.58z
			 M2216.96,1992.02H802.39V879.28V481.87V380.49h1414.58v76.85v397.88V1992.02z"/>
		<g>
			<path class="st0" d="M1236.17,1962.4c-2.04,6.26-4.33,12.74-9.04,17.33c-3.49,3.4-8.04,5.48-12.55,7.31
				c-36.65,14.84-78.28,17.08-116.31,6.24c-11.9-3.39-24.28-8.68-30.71-19.26c-3-4.92-4.45-10.61-5.81-16.21
				c-11.44-46.89-19.71-94.55-24.75-142.55c-0.22-2.08-0.37-4.38,0.87-6.05c1.04-1.4,2.8-2.01,4.46-2.54
				c66.05-21,137.88-23.48,205.23-7.08c29.62,7.22,14.3,49.49,10.75,71.38C1253.28,1901.96,1245.88,1932.55,1236.17,1962.4z"/>
			<path class="st0" d="M1331.71,1669.07c16.13-8.71,35.97-15.47,43.31-30.71c5.2-10.79,2.56-23.07,3.54-34.74
				c1.91-22.69,17.38-42.48,30.11-62.35c6.12-9.56,11.8-19.68,12.9-30.58c1.1-10.9-3.24-22.83-13.65-28.95
				c-10.63-6.25-25.14-5.15-36.8-0.5c-11.67,4.64-21.31,12.31-31.43,19.18c-28.83,19.57-63.44,33.93-84.98,59.66
				c-27.23,32.53-27.79,76.07-25.17,116.27c0.94,14.43,2.73,30.07,14.05,40.63C1275.53,1746.77,1308.23,1681.74,1331.71,1669.07z"/>
			<path class="st0" d="M1102.55,1608.29c-0.76-17.07-1.82-35.24-9.69-48.94c-11.99-20.87-35.11-23.96-51.21-39.48
				c-29.38-28.33-32.71-94.62-67.81-108.01c-6.38-2.43-13.12-2.65-19.65-4.29c-42.18-10.58-67.19-76.72-109.88-82.91
				c-5.78-0.84-12.17-0.23-16.53,4.77c-6.52,7.48-5.63,20.86-3.67,31.87c7.13,40.07,21.37,77.97,41.31,109.9
				c2.69,4.31,5.6,8.83,6.21,14.33c0.97,8.71-3.97,16.36-7.55,23.83c-13.29,27.73-7.73,68.02,12.13,88.03
				c22.26,22.43,55.14,18.26,78.34,39c12.41,11.09,20.72,28.13,30.08,43.46c14.44,23.64,32.07,43.98,51.84,59.82
				c21.05,16.87,67.18,35.95,76.33-8.14C1118.95,1701.91,1103.97,1640.07,1102.55,1608.29z"/>
			<path class="st0" d="M1175.24,1668.28c8.64-16.02,13.43-33.82,20.65-50.53c4.56-10.56,10.14-20.79,12.83-31.98
				c2.69-11.19,2.09-23.88-4.86-33.04c-2.72-3.58-6.28-6.47-8.81-10.19c-9.07-13.33-2.13-31.11-0.37-47.16
				c1.62-14.87-1.73-30.24-9.39-43.07c-4.24-7.1-9.74-13.41-13.68-20.69c-13.82-25.54-6.63-59.16-22.31-83.59
				c-2-3.12-4.68-6.23-8.32-6.85c-3.48-0.6-6.88,1.23-9.82,3.19c-21.77,14.49-35.5,40.43-35.28,66.67
				c0.09,11.06,1.91,23.83-5.87,31.65c-3.51,3.53-8.39,5.28-12.35,8.28c-10.22,7.75-12.55,22.34-11.12,35.12
				c1.43,12.78,5.76,25.25,5.64,38.11c-0.05,5.85-1.25,12.11-5.42,16.2c-2.77,2.72-6.55,4.15-9.58,6.57
				c-7.74,6.16-9.27,17.41-8.25,27.28c1.54,14.83,7.39,28.81,13.16,42.54c8.58,20.39,17.16,40.78,25.74,61.17
				c4.39,10.43,9.14,21.34,18.09,28.22C1129.5,1724.33,1164.67,1687.88,1175.24,1668.28z"/>
			<path class="st1" d="M1197.12,1827.47c-2.74,0.28-5.47,0.53-8.21,0.77c-36.17,3.08-76.8,5.98-112.57-1.8
				c-4.8-1.04-9.71-2.99-13.42-6.29c-7.08-6.3-4.24-9.2,3.89-10.33c56.84-7.89,116.58-15.11,172.55,1.77
				c1.69,0.51,3.5,1.13,4.52,2.58c6.35,9.06-15.75,9.23-20.64,9.98C1214.55,1825.47,1205.85,1826.58,1197.12,1827.47z"/>
			<path class="st1" d="M1199.19,1816.28c1.2,0,2.31-0.75,2.67-1.91c24.93-80.41,69.75-155.55,113.52-225.61
				c13.92-22.27,31.23-50,56.51-67.54c1.24-0.86,1.52-2.53,0.61-3.72c-0.91-1.19-2.65-1.45-3.9-0.59
				c-26.2,18.19-43.84,46.43-58.02,69.12c-43.95,70.35-88.97,145.82-114.08,226.83c-0.44,1.41,0.41,2.89,1.88,3.3
				C1198.66,1816.25,1198.93,1816.28,1199.19,1816.28z"/>
			<path class="st1" d="M1149.57,1816.35c0.07,0,0.15,0,0.22-0.01c1.54-0.11,2.68-1.37,2.56-2.8
				c-11.13-131.82-14.47-265.68-9.93-397.85c0.05-1.44-1.16-2.64-2.7-2.68c-1.58-0.04-2.83,1.08-2.88,2.52
				c-4.55,132.37-1.2,266.42,9.95,398.43C1146.91,1815.32,1148.13,1816.35,1149.57,1816.35z"/>
			<path class="st1" d="M1121.61,1816.35c0.33,0,0.67-0.06,1-0.18c1.44-0.53,2.15-2.07,1.6-3.44
				c-50.25-124.6-107.5-254.97-205.35-359.12c-1.03-1.1-2.79-1.19-3.94-0.21c-1.15,0.98-1.24,2.66-0.22,3.76
				c97.21,103.48,154.23,233.34,204.3,357.48C1119.44,1815.7,1120.49,1816.35,1121.61,1816.35z"/>
			<path class="st1" d="M1197.14,1979.51c10.32-40.8,19.5-81.98,24.38-123.78c0.56-4.76,1.1-9.66,3.41-13.86
				c0.91-1.64,1.97-3.36,3.84-3.95c1.66-0.53,3.62-0.2,5.34-0.45c2.63-0.4,5.8-1.88,7.03,1.25c0.93,2.36,0.76,5.12,0.48,7.59
				c-0.56,5-2.29,9.73-3.09,14.66c-1.87,11.58-3.85,23.15-6,34.69c-4.25,22.8-9.17,45.49-15.21,67.89
				c-1.29,4.77-2.68,9.64-5.58,13.63c-2.9,4-7.66,7.01-12.57,6.48c-0.56-0.06-1.13-0.17-1.57-0.53
				C1196.6,1982.32,1196.82,1980.76,1197.14,1979.51z"/>
		</g>
	</g>
	<g>
		<rect x="2433.76" y="193.53" class="st1" width="442.46" height="527.95"/>
		
			<rect x="2440.34" y="285.61" transform="matrix(-1.836970e-16 1 -1 -1.836970e-16 3112.5012 -2197.4807)" class="st0" width="429.3" height="343.81"/>
	</g>
	<path d="M31.33,2681.3c30.63-0.87,61.27-1.5,91.9-2.25l91.9-1.9c61.27-1.21,122.54-2.22,183.8-3.18
		c122.54-1.87,245.07-3.27,367.61-4.42c245.07-2.2,490.14-3.22,735.21-3.24c245.07-0.02,490.14,1,735.21,3.2
		c122.54,1.14,245.07,2.55,367.61,4.42c61.27,0.96,122.54,1.98,183.8,3.19l91.9,1.91l45.95,1.1l22.98,0.55l22.98,0.62l-22.98,0.62
		l-22.98,0.55l-45.95,1.1l-91.9,1.91c-61.27,1.21-122.54,2.23-183.8,3.19c-122.54,1.88-245.07,3.28-367.61,4.42
		c-245.07,2.2-490.14,3.22-735.21,3.2c-245.07-0.02-490.14-1.04-735.21-3.24c-122.54-1.15-245.07-2.55-367.61-4.42
		c-61.27-0.96-122.54-1.97-183.8-3.18l-91.9-1.9C92.6,2682.8,61.97,2682.17,31.33,2681.3z"/>
	<g>
		<path class="st2" d="M2158.88,1583.49l-142.01,45.5l-5.06,2.18c-30.5,10.03-52.95,45.28-52.96,45.31
			c-17.33,28.5-37.01,71.22-56.2,135.12c-75.79,148.66-194.34,370.38-258.96,435.79c0,0-392.86,109.3-551.72,140.36
			c-1.95,21.82-5.67,89.32,15.41,146.45c103.55-9.63,477.1-44.67,583.23-58.98c0,0,157.36-29,199.66-93.11l58.92-104.45L1944,2449.8
			l-39.13,231.21c64.34,0.23,128.69,0.32,193.03,0.29v-592.2l72.14-505.61c0.37-2.59,0.06-4.59-0.73-6.15L2158.88,1583.49z"/>
		<path class="st3" d="M2345.42,1755.33c0,0,0-0.02,0-0.03c0-0.03-0.01-0.08-0.02-0.16c0-0.01-0.01-0.04-0.01-0.06
			c-0.02-0.13-0.05-0.31-0.09-0.55c0-0.01,0-0.03-0.01-0.04c-0.62-3.81-3.69-20.36-13.33-44.25l-22.94,19.6l-60.12-4.65
			l-11.84-25.29c-12.18,22.93-13.85,38.25-13.85,38.25c-35.79-42.98-49.95-131.52-53.15-154.99c-0.01,0.11-0.01,0.22-0.03,0.33
			l-72.14,505.61v592.2c40.51-0.02,81.02-0.08,121.52-0.19c35.64-0.09,71.28-0.23,106.92-0.38l19.07-148.85l23.73-460.09
			L2513.42,1587C2417.27,1696.66,2345.42,1755.33,2345.42,1755.33z"/>
		<g>
			<path class="st4" d="M1046.39,2409.68l-7.98,0.9l-5.13,0.79c-12.16-5.24-21.85-15.94-21.85-15.94c-2.84-2.59-5.51-5.39-7.81-8.42
				c-7.56-9.96-12.79-21.98-21.4-31.06c-6.17-6.5-13.06-12.19-19.98-17.84c-0.05-0.03-5.27-3.32-12.75-8.84
				c0,0-23.14-13.64-57.74-49.74l-3.48-3.07c-12.63-11.66-45.31-37.5-62.11-19.32c-5.59,6.05-5.85,15.59-2.75,22.8
				c3.11,7.2,8.92,12.59,14.58,17.79c11.72,10.74,23.44,21.49,35.16,32.23c3.99,3.66,8.13,7.55,9.78,12.86
				c1.65,5.31-0.19,12.44-5.35,14.82c-2.09,0.96-4.39,1.03-6.62,1.06c-24.56,0.37-49-1.38-73.02-5.17
				c-4.93-0.78-9.99-1.06-14.95-1.57c-17.51-1.78-35.03-3.43-52.58-4.7c-19.77-1.43-38.29-1-58.07,0.78
				c-6.58,0.59-14.37,1.84-18.11,8.07c-6.32,10.54-2.9,23.06,9.6,25.54c20.42,4.05,41.4,2.87,62.03,5.11
				c8.89,0.96,17.77,1.93,26.66,2.89c11.51,1.25,23.01,2.49,34.52,3.74c2.82,0.68,5.49,1.72,7.74,3.51c2.18,1.74,3.74,4.46,4.23,7.3
				c-2.72,11.16-13.99,7.71-13.99,7.71c-39.9-3.79-101.38-0.08-120.81,1.27c-12.93,0.9-29.3,1.53-38.89,11.62
				c-3.6,3.79-7.37,10.73-6.35,16.26c2.57,13.85,18.78,16.36,18.78,16.36c4.99,1.79,10.66,0.51,15.77-0.05
				c5.69-0.63,11.38-1.25,17.08-1.79c36.03-3.43,72.35-4.43,108.37-0.97c0.25,0.03,0.51,0.05,0.77,0.07
				c1.35,0.28,2.69,0.57,4.03,0.91c3.89,0.99,11.37,5.25,8.87,10.69c-1.43,3.11-5.58,3.17-8.32,4.1c-3.68,1.25-7.42,2.21-11.19,2.98
				c-7.38,1.52-14.84,2.32-22.27,3.22c-18.48,2.24-36.96,5.14-55.21,9.61c-12.08,2.96-25.13,5.97-36.73,10.87
				c-5.76,2.43-11.77,6.4-14.8,12.27c-2.63,5.11-1.92,10.72-0.27,15.79c6.22,14.39,38.66,4.14,38.66,4.14
				c10.2-3.63,20.68-6.46,31.25-8.73c12.34-2.66,24.81-4.58,37.31-6.29c6.26-0.85,12.53-1.65,18.8-2.46c3.13-0.4,6.27-0.81,9.4-1.22
				c5.14-0.68,10.53-1.45,15.71-0.93c10.5,1.06,2.6,11.14-3.16,13.6c-26.83,11.41-54.3,20.94-82.16,28.49
				c-9.1,2.46-19.8,6.12-22.9,15.33c-3.1,9.2,4.13,18.65,12.91,21.08c8.78,2.42,18.36-0.19,27.39-2.89
				c42.37-12.61,85.02-27.2,128.41-28.51c16.73,5.01,34.38,7.22,52.07,7.5c24.94,0.39,49.81-8.21,72.66-19.57
				c17.4-8.65,33.46-18.59,48.48-31.28c7.52-6.36,13.96-9.05,21.49-10.13C1043.01,2469.89,1044.95,2428.52,1046.39,2409.68z"/>
			<path class="st5" d="M879.36,2332.75c3.21,3.92,5.99,8.41,6.63,13.44s-1.34,10.63-5.75,13.1c-2.01,1.12-4.33,1.53-6.61,1.77
				c-3.66,0.39-7.35,0.4-11.01,0.04c-1.06-0.11-2.23-0.22-3.1,0.41c-1.35,0.97-1.11,3.11-0.23,4.53c2.39,3.85,7.52,4.72,12.03,5.21
				c8.79,0.97,17.59,1.93,26.38,2.9c5.42,0.6,11.07,1.16,16.17-0.74c1.31-0.49,2.59-1.16,3.52-2.2c2.52-2.81,1.75-7.23,0.31-10.72
				c-3.42-8.31-9.62-15.17-16.21-21.27c-8.16-7.55-17.12-14.24-26.69-19.9c-1.76-1.04-3.58-2.06-5.6-2.37
				c-1.45-0.22-3.31,0.25-3.58,1.69c-0.23,1.24,0.9,2.29,1.99,2.93C872.06,2324.12,876.14,2328.8,879.36,2332.75z"/>
			<path class="st5" d="M1028.68,2513.36c7.52-6.36,13.96-9.05,21.49-10.13c-7.17-33.35-5.23-74.71-3.78-93.55l-7.98,0.9l-5.13,0.79
				c-12.16-5.24-21.85-15.94-21.85-15.94c-2.84-2.59-5.51-5.39-7.81-8.42c-7.56-9.96-12.79-21.98-21.4-31.06
				c-6.17-6.5-13.06-12.19-19.98-17.84c-0.03-0.02-1.88-1.19-4.88-3.24c-0.62,9.43,6.93,21.29,12.15,27.2
				c6.29,7.11,12.68,14.3,16.97,22.77c6.48,12.81,8.15,28.5,18.36,38.59c3.44,3.4,7.68,5.95,10.8,9.64
				c5.87,6.97,6.79,16.71,7.44,25.8c0.83,11.52,1.57,23.61-3.23,34.12c-2.54,5.55-6.49,10.32-10.39,15.01
				c-7.46,8.97-15.11,18.11-25.09,24.14c-6.41,3.87-14.53,7.5-15.75,14.89c-0.17,1-0.12,2.02,0.03,3.01
				c3.9-1.71,7.76-3.51,11.56-5.4C997.61,2535.99,1013.67,2526.05,1028.68,2513.36z"/>
		</g>
		<path class="st0" d="M2326.34,2680.73l2.63-20.52c-20.03,13.7-38.33,20.21-55.05,20.72
			C2291.4,2680.86,2308.87,2680.8,2326.34,2680.73z"/>
		<path class="st6" d="M2219.42,2681.11c16.86-0.04,33.73-0.11,50.59-0.17c-163.7-4.26-172.05-592.29-172.05-592.29l-0.06,0.45
			v592.2C2138.4,2681.28,2178.91,2681.21,2219.42,2681.11z"/>
		<g>
			<path class="st7" d="M2631.22,1160.8c-4.7-14.47-16.59-26.58-30.9-31.27l0,0c-0.42-0.14-0.84-0.25-1.27-0.37
				c-0.59-0.17-1.18-0.35-1.78-0.49c-0.43-0.11-0.87-0.2-1.31-0.3c-0.65-0.14-1.31-0.26-1.97-0.37c-0.37-0.06-0.73-0.13-1.1-0.18
				c-1.04-0.14-2.08-0.26-3.14-0.32c-10.12-0.58-20.32,3.08-28.17,9.44c-4.23,3.43-7.76,7.63-10.23,12.41
				c-2.72-5.4-4.75-11.21-6.16-17.03c-3.85-15.93-3.97-32.52-6.83-48.66c-5.05-28.54-18.89-55.46-39.15-76.18
				c-11.36-11.61-24.75-21.42-34.02-34.76c-8.1-11.66-12.6-25.4-19.48-37.82c-6.88-12.42-17.27-24.19-31.18-26.98
				c-15.79,3.46-31.17,8.81-45.69,15.89c-13.86,6.76-26.91,15.07-40.65,22.06c-50.19,25.56-107.56,32.73-160.63,51.62
				c-15.27,5.44-30.63,12.14-41.92,23.78c-17.66,18.21-22.33,44.95-27.26,69.84c-3.39,17.1-7.66,43.21-21.61,55.37
				c-1.14,1-2.26,1.78-3.36,2.47c-1.77-3.32-4.04-6.35-6.71-9.04c-5.09-5.12-11.58-8.95-18.57-10.94c-0.16-0.04-0.32-0.07-0.48-0.11
				c-4.05-1.1-8.25-1.61-12.45-1.37c-1.33,0.08-2.64,0.23-3.95,0.44c-0.07,0.01-0.14,0.03-0.22,0.04c-1.26,0.21-2.51,0.47-3.75,0.79
				l0,0c-15.47,4-28.56,16.68-33.55,32.03c-2.13,6.56-2.95,13.49-2.95,20.38c0,17.33,5.09,34.38,12.69,49.94
				c5.48,11.21,12.44,21.97,22.17,29.77s22.58,12.35,34.85,10.11c1.46-0.27,2.91-0.65,4.32-1.13c-0.62,21.34-1.15,35.12-1.15,35.12
				c-2.95,92.14,70.88,150.03,70.88,150.03c20.92,13.74,41.84,27.48,62.76,41.23c25.58,16.8,58.72,47.48,89.01,52.92
				c9.09,1.63,18.56,2.36,27.8,2.13c9.24,0.23,18.71-0.5,27.8-2.13c30.29-5.44,63.43-36.12,89.01-52.92
				c20.92-13.74,41.84-27.48,62.76-41.23c0,0,73.83-57.89,70.88-150.03c0,0-0.52-13.4-1.12-34.22c0.33,0.07,0.65,0.16,0.98,0.22
				c12.27,2.24,25.12-2.31,34.85-10.11s16.7-18.56,22.17-29.77c7.6-15.57,12.69-32.62,12.69-49.94
				C2634.17,1174.3,2633.35,1167.36,2631.22,1160.8z"/>
			<path class="st8" d="M2634.01,1176.18c-0.32-5.22-1.17-10.41-2.79-15.37c-4.7-14.47-16.59-26.58-30.9-31.27
				c-0.32-0.11-0.65-0.19-0.98-0.29c-0.1-0.03-0.19-0.06-0.29-0.08c-0.59-0.17-1.18-0.35-1.78-0.49c-0.43-0.11-0.87-0.2-1.31-0.3
				c-0.65-0.14-1.31-0.26-1.97-0.37c-0.37-0.06-0.73-0.13-1.1-0.18c-1.04-0.14-2.08-0.26-3.14-0.32c-1.27-0.07-2.53-0.08-3.79-0.02
				c-8.84,0.4-17.5,3.9-24.37,9.46c-0.53,0.43-1.01,0.9-1.52,1.36c-3.54,3.17-6.55,6.88-8.72,11.06v0l0,0
				c-1.36-2.7-2.55-5.5-3.57-8.36c-1.02-2.86-1.88-5.76-2.59-8.67c-0.96-3.98-1.69-8.01-2.29-12.05c-0.63-4.24-1.11-8.51-1.56-12.78
				c-0.39-3.68-0.76-7.37-1.18-11.05c-0.49-4.28-1.05-8.54-1.8-12.77c-0.32-1.78-0.67-3.56-1.05-5.33
				c-0.77-3.54-1.67-7.05-2.7-10.52c-0.52-1.74-1.07-3.46-1.65-5.18c-1.74-5.15-3.77-10.19-6.08-15.12
				c-1.54-3.28-3.19-6.51-4.97-9.66c-6.21-11.05-13.84-21.31-22.71-30.37c-2.08-2.13-4.24-4.18-6.42-6.22c0,0,0,0,0,0
				c7.1,10.35,42.3,32.54,46.57,88.8c6.99,43.2-6.25,97.26-3.15,140.89c1.12,15.82,2.42,31.48,2.46,47.04
				c0.05,18.34-1.64,36.53-7.39,54.64c-9.38,29.52-29.35,67.04-55.99,85.19c-18.8,12.81-37.59,25.61-56.39,38.42
				c-22.98,15.66-52.76,44.25-79.97,49.32c-8.16,1.52-16.68,2.2-24.98,1.99c-8.3,0.21-16.81-0.46-24.97-1.99
				c-27.21-5.07-56.99-33.66-79.97-49.32c-18.8-12.81-37.59-25.61-56.39-38.42c-0.86-0.7-1.68-1.44-2.5-2.18
				c-31.78-28.46-54.46-69.62-59.93-111.94c-4.84-37.47-5.32-76.86,1.07-113.69c6.53-37.7-6.33-63.14,0.86-100.71
				c4.43-23.19,36.62-58.76,52.49-75.73c6.54-6.99,14.61-12.06,23.19-16.15c-0.04,0.01-0.08,0.03-0.13,0.04
				c-0.04,0.01-0.08,0.03-0.11,0.04c-3.82,1.36-7.64,2.8-11.41,4.37c-5.65,2.36-11.16,5.03-16.32,8.2
				c-5.16,3.17-9.96,6.84-14.2,11.2c-4.42,4.55-8.02,9.64-11.02,15.1c-3.75,6.82-6.55,14.22-8.81,21.88
				c-3.17,10.73-5.27,21.97-7.43,32.86c-1.06,5.34-2.21,11.57-3.71,17.97c-0.3,1.28-0.61,2.57-0.94,3.86
				c-1.12,4.36-2.44,8.73-4.01,12.91c-0.75,2-1.55,3.96-2.44,5.85c-0.55,1.16-1.12,2.3-1.73,3.41c-0.85,1.56-1.79,3.03-2.76,4.45
				c-1.1,1.6-2.25,3.12-3.52,4.49c-0.8,0.86-1.63,1.68-2.5,2.44c-0.71,0.62-1.41,1.14-2.11,1.63c-0.42,0.29-0.84,0.59-1.26,0.85
				c-0.44-0.83-1.01-1.59-1.51-2.38c-1.51-2.38-3.2-4.65-5.21-6.66c-2.54-2.56-5.44-4.8-8.57-6.64c-1.57-0.92-3.19-1.75-4.86-2.47
				c-1.67-0.72-3.39-1.33-5.13-1.83c-0.04-0.01-0.09-0.02-0.13-0.03c-0.12-0.03-0.23-0.05-0.35-0.08c-4.05-1.1-8.25-1.61-12.45-1.37
				c-1.33,0.08-2.64,0.23-3.95,0.44c-0.02,0-0.05,0.01-0.07,0.01c-0.05,0.01-0.1,0.02-0.14,0.03c-1.26,0.21-2.51,0.48-3.75,0.79
				c-6.58,1.7-12.71,4.98-17.98,9.35c-0.93,0.77-1.85,1.57-2.72,2.41c-3.41,3.27-6.36,7.04-8.73,11.13
				c-0.67,1.15-1.3,2.32-1.88,3.52c-0.87,1.82-1.62,3.7-2.24,5.62c-0.33,1.02-0.58,2.07-0.85,3.11c-1.04,4.01-1.69,8.12-1.94,12.26
				c-0.1,1.67-0.16,3.34-0.16,5.01c0,12.43,2.65,24.71,6.93,36.41c0.94,2.57,1.93,5.12,3.03,7.63c0.87,1.99,1.78,3.96,2.73,5.91
				c1.37,2.8,2.83,5.58,4.41,8.28c0.79,1.35,1.6,2.69,2.45,4c4.23,6.57,9.23,12.6,15.32,17.48c3.65,2.92,7.74,5.39,12.07,7.22
				c1.8,0.76,3.66,1.36,5.54,1.89c5.62,1.57,11.49,2.06,17.24,1.01c1.08-0.2,2.14-0.52,3.19-0.83c0.37-0.11,0.76-0.17,1.13-0.29l0,0
				l0,0c-0.08,2.67-0.15,5.22-0.23,7.64c-0.18,6.05-0.35,11.28-0.5,15.51c-0.09,2.54-0.16,4.71-0.23,6.49
				c-0.13,3.55-0.2,5.49-0.2,5.49c-0.46,14.4,0.95,27.96,3.67,40.59c1.09,5.05,2.38,9.96,3.84,14.71
				c2.93,9.5,6.54,18.39,10.55,26.62c2,4.11,4.1,8.06,6.26,11.83c5.4,9.44,11.19,17.81,16.78,25.01c1.12,1.44,2.23,2.84,3.33,4.18
				c14.27,17.52,26.46,27.08,26.46,27.08c20.92,13.74,41.84,27.48,62.76,41.22c0.21,0.14,0.43,0.29,0.64,0.43
				c1.4,0.93,2.81,1.88,4.25,2.88c0.9,0.62,1.82,1.29,2.74,1.94c0.77,0.55,1.53,1.08,2.32,1.64c1.36,0.98,2.75,1.99,4.14,3.01
				c0.35,0.26,0.7,0.51,1.05,0.77c5.32,3.91,10.84,8.06,16.5,12.18c0.01,0,0.01,0.01,0.02,0.01c1.85,1.35,3.72,2.69,5.6,4.03
				c0.3,0.21,0.61,0.42,0.91,0.63c1.59,1.12,3.18,2.24,4.78,3.33c15.21,10.39,30.99,19.36,46.06,22.07
				c9.09,1.63,18.56,2.36,27.8,2.13c9.24,0.23,18.71-0.5,27.8-2.13c14.87-2.67,30.42-11.43,45.43-21.64c1.47-1,2.92-2.01,4.38-3.03
				c0.45-0.32,0.91-0.63,1.36-0.95c1.64-1.16,3.27-2.33,4.88-3.5c0.25-0.18,0.51-0.37,0.76-0.55c5.82-4.23,11.5-8.49,16.96-12.51
				c0.45-0.33,0.88-0.64,1.32-0.96c1.29-0.95,2.59-1.9,3.86-2.81c0.89-0.64,1.75-1.24,2.62-1.86c0.83-0.58,1.66-1.19,2.48-1.75
				c1.52-1.06,3.02-2.07,4.49-3.04c0.15-0.1,0.31-0.21,0.46-0.31c20.92-13.74,41.84-27.48,62.76-41.22c0,0,73.83-57.89,70.88-150.03
				c0,0-0.05-1.31-0.14-3.74c-0.02-0.49-0.04-1.02-0.06-1.59c-0.04-1.13-0.09-2.44-0.14-3.89c-0.21-5.95-0.49-14.53-0.79-24.98l0,0
				v0c0.33,0.07,0.65,0.16,0.98,0.22c5.83,1.06,11.78,0.56,17.47-1.06c1.8-0.51,3.58-1.1,5.31-1.83c4.33-1.82,8.42-4.29,12.07-7.22
				c1.22-0.97,2.39-2,3.52-3.06c6.39-5.99,11.47-13.32,15.71-21.06c0.52-0.95,1.03-1.91,1.53-2.87c0.47-0.92,0.95-1.84,1.41-2.77
				c3.8-7.78,6.97-15.94,9.2-24.31c2.22-8.37,3.49-16.97,3.49-25.63C2634.17,1179.52,2634.11,1177.85,2634.01,1176.18z"/>
			<path class="st9" d="M2626.74,973.91c-2.78-7.11-6.44-13.76-10.56-20.18l0,0c-22-35.42-31.49-99.65-31.49-99.65
				c-42.97-180.67-404.42-135.71-496.83-48.73c-32.79,30.86-83.61,140.97-85.13,159.07c-1.16,13.77-1.15,27.63,0,41.4
				c-0.68,13.38,0.12,26.9,2.1,40.1c3.78,25.13,12.3,48.58,19.71,72.74c1.02,3.32,1.91,6.7,2.78,10.11
				c2.58-0.67,5.22-1.12,7.91-1.28c11.62-0.67,23.35,4.23,31.49,12.42c2.67,2.69,4.95,5.72,6.71,9.04
				c1.1-0.69,9.86,110.18,11,109.19c13.95-12.16,10.58-149.94,13.97-167.04c4.93-24.88,21.11-49.53,38.77-67.73
				c11.29-11.64,62.49-29.02,77.97-33.84c86.79-27,42-13.67,97.35-24.11c34.48-6.5,96.47-6.75,106.11,0
				c13.92,2.79,69.26,30.44,80.62,42.05c20.27,20.72,24.26,40.3,29.31,68.84c2.86,16.14,10.61,148.19,14.46,164.12
				c1.41,5.82,5.65-96.49,8.37-91.09c2.47-4.78,6.01-8.98,10.23-12.41c7.85-6.36,18.04-10.02,28.17-9.44
				c3.61,0.21,7.15,0.91,10.56,2.03c7.38-22.13,16.95-43.59,23.93-65.89C2633.37,1034.53,2637.84,1002.33,2626.74,973.91z"/>
			<ellipse cx="2201.47" cy="1158.77" rx="16.07" ry="26.31"/>
			<path d="M2139.03,1106.87c-1.65-0.03-3.76-0.42-4.05-2.04c-0.12-0.68,0.16-1.35,0.46-1.97c4.74-9.61,16.65-12.91,27.25-14.42
				c12-1.71,24.13-2.44,36.25-2.19c9.36,0.2,19.67,1.42,26,8.32c3.67,4,5.44,9.37,6.55,14.68c0.31,1.49,0.58,3.07,0.08,4.51
				c-0.77,2.22-3.2,3.5-5.54,3.64c-5.08,0.29-11.29-3.17-16.43-4.05c-7.76-1.33-15.58-2.41-23.41-3.32
				C2170.54,1108.2,2154.79,1107.15,2139.03,1106.87z"/>
			<ellipse cx="2429.67" cy="1158.77" rx="16.07" ry="26.31"/>
			<path d="M2488.44,1088.07c1.64-0.11,3.74-0.6,3.95-2.23c0.09-0.68-0.22-1.34-0.55-1.94c-5.19-9.37-17.23-12.12-27.9-13.13
				c-12.06-1.14-24.22-1.31-36.31-0.49c-9.34,0.63-19.58,2.34-25.58,9.52c-3.48,4.16-4.99,9.62-5.86,14.97
				c-0.24,1.5-0.43,3.09,0.13,4.51c0.87,2.18,3.36,3.35,5.71,3.37c5.09,0.05,11.13-3.7,16.23-4.82c7.69-1.69,15.45-3.13,23.22-4.41
				C2457.04,1090.87,2472.71,1089.08,2488.44,1088.07z"/>
			<path class="st10" d="M2566.94,1392.95c-0.2,0-0.39-0.12-0.46-0.31c-0.1-0.26,0.02-0.55,0.28-0.65l12.77-5.11
				c0.26-0.1,0.55,0.02,0.65,0.28c0.1,0.26-0.02,0.55-0.28,0.65l-12.77,5.11C2567.06,1392.94,2567,1392.95,2566.94,1392.95z"/>
			<path class="st10" d="M2393.36,1358.18c1.02-0.64,2.08-1.31,3.28-1.42c2.66-0.24,4.82,2.54,4.89,5.21
				c0.07,2.67-1.34,5.14-2.8,7.37c-14.16,21.6-38.04,36.14-63.48,40.62c-25.44,4.48-52.17-0.74-75-12.84
				c-15.1-8-7.26-17.46,6.62-15.38c14.61,2.18,28.88,3.68,43.69,2.78C2339.76,1382.75,2368.58,1373.79,2393.36,1358.18z"/>
			<path class="st11" d="M2044.85,1240.44c-0.81,0-1.61-0.06-2.39-0.17c-6.94-0.97-13.17-5.61-19.02-14.19
				c-7.57-11.11-12.53-24.02-14.33-37.34c-1.69-12.54-0.03-22.99,4.94-31.06c4.98-8.1,13.9-13.33,22.71-13.33
				c2.31,0,4.55,0.36,6.66,1.07c1.8,0.61,2.78,2.57,2.17,4.38c-0.47,1.41-1.79,2.35-3.27,2.35c-0.38,0-0.75-0.06-1.11-0.19
				c-1.41-0.48-2.91-0.72-4.45-0.72c-6.25,0-13.17,4.14-16.81,10.06c-4.11,6.68-5.44,15.6-3.97,26.52
				c1.65,12.26,6.21,24.15,13.19,34.37c4.69,6.88,9.35,10.55,14.26,11.24c0.46,0.06,0.93,0.1,1.41,0.1c5.2,0,10.33-3.82,11.67-8.7
				c1.5-5.44-1.63-11.89-6.83-14.08c-1.31-0.55-2.74-0.83-4.26-0.83c-4.32,0-8.57,2.32-10.59,5.78c-0.61,1.06-1.76,1.71-2.99,1.71
				c-0.61,0-1.21-0.16-1.74-0.47c-0.8-0.46-1.36-1.21-1.6-2.1s-0.11-1.82,0.36-2.62c3.27-5.59,9.76-9.21,16.54-9.21
				c2.45,0,4.79,0.46,6.95,1.38c8.37,3.53,13.22,13.52,10.81,22.29C2061,1234.52,2053.13,1240.44,2044.85,1240.44z"/>
			<path class="st11" d="M2580.96,1240.44c-8.28,0-16.15-5.92-18.31-13.77c-2.41-8.76,2.44-18.76,10.81-22.28
				c2.17-0.92,4.51-1.38,6.95-1.38c6.78,0,13.28,3.61,16.54,9.21c0.47,0.8,0.59,1.73,0.36,2.62c-0.23,0.89-0.8,1.64-1.6,2.11
				c-0.53,0.31-1.13,0.47-1.74,0.47c-1.22,0-2.37-0.66-2.98-1.71c-2.02-3.46-6.28-5.78-10.6-5.78c-1.51,0-2.95,0.28-4.25,0.83
				c-5.2,2.19-8.33,8.64-6.83,14.08c1.34,4.88,6.47,8.7,11.66,8.7c0.48,0,0.95-0.03,1.42-0.1c4.91-0.69,9.57-4.36,14.26-11.24
				c6.97-10.22,11.53-22.11,13.19-34.37c1.47-10.92,0.14-19.84-3.97-26.52c-3.64-5.92-10.56-10.06-16.82-10.06
				c-1.54,0-3.04,0.24-4.45,0.72c-0.36,0.12-0.73,0.18-1.11,0.18c-1.48,0-2.79-0.94-3.27-2.35c-0.61-1.81,0.36-3.77,2.17-4.38
				c2.1-0.71,4.34-1.07,6.66-1.07c8.81,0,17.72,5.23,22.71,13.33c4.97,8.07,6.63,18.52,4.94,31.06
				c-1.8,13.33-6.75,26.24-14.33,37.34c-5.85,8.58-12.07,13.22-19.02,14.19C2582.57,1240.39,2581.77,1240.44,2580.96,1240.44z"/>
		</g>
		<path class="st2" d="M2725.17,2678.19l-18.45-127.58c24.5,15.24,62.56,18.46,62.56,18.46c17.56,0,33-2.69,46.61-7.43
			c145.11-39.29,113.03-209.95,113.03-209.95c-13.55-96-35.52-293.94-44.42-375.42l-10.41-135.34
			c-2.47-42.22-18.28-72.55-31.43-90.85c-5.85-7.08-12-13.99-18.32-20.77c0,0-0.01-0.01-0.01-0.01l0,0
			c-20.89-22.39-43.53-43.42-62.37-64.94c-22.52-25.72-62.16-29.35-93.71-37.87c-36.56-9.88-76.33-18.07-110.58-34.69
			c0,0-34.15-14.91-44.25-4.81l-144.28,484.78l-23.73,460.09l-19.07,148.85C2459.29,2680.16,2592.23,2679.23,2725.17,2678.19z"/>
		<path class="st12" d="M2345.42,2531.88l23.73-460.09L2513.42,1587c7.02-7.02,25.63-1.96,36.35,1.78l0,0
			c13.19,3.8,28.82,6.88,28.82,6.88c9.26,1.8,10.79,7.95,10.79,7.95l6.82,184.42l-80.21,80.8l15.39,188.53L2345.42,2531.88z"/>
		<path class="st2" d="M2319.13,2550.8c-22.12-253.93-10.1-820.96-10.1-820.96l-60.12-4.65
			c-25.01,214.66-112.54,806.69-112.54,806.69l74.2,92.77L2319.13,2550.8z"/>
		<g>
			<path class="st13" d="M2695.51,2345.36c-10.57,0.2-21.15,0.41-31.72,0.61c-15.63,0.3-32.07,0.81-45.5,8.31
				c-13.43,7.5-22.13,24.55-14.35,37.24c3.25,5.3,9.17,10.13,8.14,16.16c-0.47,2.74-2.35,5.05-4.03,7.33
				c-8.74,11.93-12.67,29.16-2.82,40.31c4.65,5.26,12.35,9.68,11.76,16.49c-0.32,3.69-3.14,6.68-5.26,9.81
				c-8.53,12.56-5.34,30.89,7.01,40.27c1.86,1.41,3.95,2.7,5.12,4.66c2.8,4.71-0.9,10.28-2.61,15.42
				c-4.51,13.56,6.42,28.22,20.3,33.98c13.87,5.76,29.72,4.91,44.86,3.96c27.37-1.72,54.74-3.45,82.11-5.17
				c8.01-0.5,16.17-1.04,23.65-3.77c17.59-6.43,28.19-24.28,29.74-41.89c0.74-8.38-0.2-17,2.3-25.08c1.99-6.42,6.05-12.14,8-18.57
				c4.36-14.38-2.4-29.79-0.26-44.61c1.21-8.41,5.29-16.7,3.7-25.06c-1.41-7.41-7.02-13.41-10.68-20.11
				c-4.95-9.07-6.36-19.57-11.44-28.58c-9.9-17.58-24.18-19.3-42.76-19.97C2745.57,2346.23,2720.79,2344.87,2695.51,2345.36z"/>
			<path class="st8" d="M2734.81,2345.78c11.96,0.39,23.91,0.91,35.96,1.34c4.7,0.17,9.12,0.41,13.27,0.95
				c0.86-3.78,0.4-7.89-0.09-11.82c-2.14-16.86-1.47-34.11,1.97-50.73c2.14-10.37,5.37-21.04,3.05-31.36
				c-3.39-15.06-19.13-25.22-33.82-23.37c-14.68,1.85-27.12,14.25-31.4,29.06c-2.72,9.42-2.48,19.49-1.59,29.28
				C2723.64,2305.23,2725.59,2331.06,2734.81,2345.78z"/>
			<path class="st11" d="M2612.16,2405.54c0,0,60.7-8.72,111.97,0C2724.13,2405.54,2674.76,2416,2612.16,2405.54z"/>
			<path class="st11" d="M2617.01,2470.65c0,0,58.07-8.72,107.12,0C2724.13,2470.65,2676.91,2481.11,2617.01,2470.65z"/>
			<path class="st11" d="M2624.74,2531.49c0,0,53.88-8.72,99.39,0C2724.13,2531.49,2680.31,2541.96,2624.74,2531.49z"/>
		</g>
		<path class="st8" d="M2405.96,1499.34c-20.72,15.37-44.03,32.75-65.82,36.67c-8.81,1.58-18.01,2.29-26.97,2.07
			c-8.96,0.22-18.15-0.48-26.97-2.07c-13.88-2.5-28.38-10.48-42.44-19.9l-0.21,0.03c-2.74,21.23-11.22,32.29-17.78,37.84
			c11.5,29.98,63.85,81.43,63.85,81.43l150.05-80.8c1.08-0.98,2.08-1.81,3.04-2.58l-23.92-15.38
			C2409.67,1531.54,2406.84,1511.25,2405.96,1499.34z"/>
		<path class="st10" d="M1091.33,2395.91l-44.02,3.55c0,0-10.16,89.06,12.2,131.14l45.07-4.47
			C1088.59,2476.83,1089.6,2421.96,1091.33,2395.91z"/>
		<path d="M2289.63,1635.42c20.81,28.11,34.02,54.2,42.34,74.82l-22.94,19.61l-60.12-4.65l-12.96-27.69
			C2245.97,1681.25,2262.64,1659.26,2289.63,1635.42z"/>
		<g>
			<path class="st14" d="M2458.28,1548.21c0,0-4.49-6.41-18.6,6.41l-150.05,80.8c48.41,65.41,55.79,119.91,55.79,119.91
				s71.86-58.67,168.01-168.33C2513.42,1587,2471.42,1571.61,2458.28,1548.21z"/>
			<path class="st14" d="M2287.02,1637.74c0.86-0.77,1.72-1.55,2.6-2.32c0,0-55.47-54.51-64.77-84c0,0-4.17-7.69-14.11,0
				c0,0-29.01,23.31-41.44,25.92c0,0,12.43,111.01,53.9,160.81c0,0,5.12-47.03,62.98-99.65
				C2286.47,1638.24,2286.74,1637.99,2287.02,1637.74z"/>
		</g>
		<path class="st12" d="M2186.06,1569.15c-2.59,0.22-5.38,0.37-8.15,0.48c-13.08,0.87-22.95,4.87-22.95,4.87l-18.89,9.74
			c-1.49,0.96-2.99,3.01-4.14,4.86l-74.43,134.49l29.82,137.55l-75.51,181.31l86.09,508.35v-461.7l71.95-504.25l0,0v0l0.1-0.69
			c0.31-1.88,1.42-7.08,4.51-8.6l-0.01,0C2177.94,1574.01,2181.97,1571.72,2186.06,1569.15z"/>
	</g>
	<g>
		<path class="st10" d="M1625.51,1975.26l-0.46,2.75l-17.98,731.31H515.05l-18-731.82l-0.41-2.06c-0.4-3.17-0.23-7.47,0.32-9.96
			c0.62-0.09,1.49-0.17,2.64-0.17l0.49,0l363.6-6.05c59.31-0.99,121.88-1.49,185.95-1.49c80.31,0,164.85,0.76,258.47,2.32
			l314.16,5.23h0.25c1.15,0,2.02,0.08,2.64,0.17C1625.81,1968.44,1625.79,1973.58,1625.51,1975.26z"/>
		<path d="M1622.52,1921c-104.64-1.74-209.28-3.48-313.91-5.23c-148.6-2.47-296.84-3.3-445.4-0.83
			c-109.27,1.82-218.54,3.64-327.81,5.46c-11.93,0.2-23.86,0.4-35.79,0.6c-43.81,0-35.05,52.4-35.05,52.4l18.77,763.48h1155.46
			l18.78-763.48C1657.56,1973.39,1666.33,1921,1622.52,1921z M1625.51,1975.26l-0.46,2.75l-17.98,731.31H515.05l-18-731.82
			l-0.41-2.06c-0.4-3.17-0.23-7.47,0.32-9.96c0.62-0.09,1.49-0.17,2.64-0.17l0.49,0l363.6-6.05c59.31-0.99,121.88-1.49,185.95-1.49
			c80.31,0,164.85,0.76,258.47,2.32l314.16,5.23h0.25c1.15,0,2.02,0.08,2.64,0.17C1625.81,1968.44,1625.79,1973.58,1625.51,1975.26z
			"/>
		<path class="st0" d="M1849.07,2832.62l-210.28-103.21H483.33l-210.28,103.21c0,0-1.34,0.52-2.54,1.4c2.4-1.02,9.8-1.4,9.8-1.4
			h780.21h1.09h780.21c0,0,7.4,0.38,9.8,1.4C1850.41,2833.14,1849.07,2832.62,1849.07,2832.62z"/>
		<path class="st15" d="M1841.81,2832.62H1061.6h-1.09H280.3c0,0-10.54,1.18-10.54,4.51v4.51c0,0,1.55,3.65,17.36,3.65h773.39h1.09
			h773.39c15.81,0,17.36-3.65,17.36-3.65v-4.51C1852.36,2833.8,1841.81,2832.62,1841.81,2832.62z"/>
		<path d="M1834.99,2845.29H1061.6h-1.09H287.12c-15.81,0-17.36-3.65-17.36-3.65c1.63,4.28,5.45,6.61,8.93,8.01
			c3.32,1.34,6.89,2.15,10.38,2.17c0.78,0.01,1.56,0,2.34,0c1.2,0,2.4,0,3.6,0c1.61,0,3.21,0,4.82,0c1.99,0,3.99,0,5.98,0
			c2.37,0,4.74,0,7.1,0c2.73,0,5.45,0,8.18,0c3.07,0,6.14,0,9.2,0c3.39,0,6.79,0,10.18,0c3.7,0,7.41,0,11.11,0c4,0,8,0,12,0
			c4.28,0,8.56,0,12.84,0c4.54,0,9.09,0,13.63,0c4.79,0,9.58,0,14.37,0c5.02,0,10.05,0,15.07,0c5.24,0,10.48,0,15.72,0
			c5.44,0,10.88,0,16.33,0c5.63,0,11.25,0,16.88,0c5.8,0,11.59,0,17.39,0c5.95,0,11.9,0,17.85,0c6.09,0,12.18,0,18.27,0
			c6.21,0,12.43,0,18.64,0c6.32,0,12.64,0,18.96,0c6.41,0,12.82,0,19.24,0c6.49,0,12.98,0,19.47,0c6.55,0,13.1,0,19.65,0
			c6.59,0,13.19,0,19.78,0c6.62,0,13.25,0,19.87,0c6.64,0,13.27,0,19.91,0c6.63,0,13.27,0,19.9,0c6.62,0,13.23,0,19.85,0
			c6.58,0,13.17,0,19.75,0c6.53,0,13.07,0,19.6,0c6.47,0,12.94,0,19.41,0c6.39,0,12.78,0,19.17,0c6.29,0,12.59,0,18.88,0
			c6.18,0,12.36,0,18.55,0c6.05,0,12.11,0,18.16,0c5.91,0,11.82,0,17.74,0c5.75,0,11.51,0,17.26,0c5.58,0,11.16,0,16.74,0
			c5.39,0,10.78,0,16.17,0c5.18,0,10.37,0,15.55,0c4.96,0,9.93,0,14.89,0c4.73,0,9.45,0,14.18,0c4.47,0,8.95,0,13.42,0
			c4.21,0,8.41,0,12.62,0c3.92,0,7.84,0,11.77,0c3.62,0,7.25,0,10.87,0c3.31,0,6.62,0,9.92,0c2.98,0,5.95,0,8.93,0
			c2.63,0,5.26,0,7.89,0c2.27,0,4.54,0,6.81,0c1.89,0,3.78,0,5.68,0c1.5,0,3,0,4.5,0c1.09,0,2.18,0,3.27,0c0.53,0,1.06,0,1.59,0
			c0.14,0,0.27,0,0.41,0c0.09,0,0.18,0,0.27,0c0.14,0,0.27,0,0.41,0c0.53,0,1.06,0,1.59,0c1.09,0,2.18,0,3.27,0c1.5,0,3,0,4.5,0
			c1.89,0,3.78,0,5.68,0c2.27,0,4.54,0,6.81,0c2.63,0,5.26,0,7.89,0c2.98,0,5.95,0,8.93,0c3.31,0,6.62,0,9.92,0
			c3.62,0,7.25,0,10.87,0c3.92,0,7.84,0,11.77,0c4.21,0,8.41,0,12.62,0c4.47,0,8.95,0,13.42,0c4.73,0,9.45,0,14.18,0
			c4.96,0,9.93,0,14.89,0c5.18,0,10.37,0,15.55,0c5.39,0,10.78,0,16.17,0c5.58,0,11.16,0,16.74,0c5.75,0,11.51,0,17.26,0
			c5.91,0,11.82,0,17.74,0c6.05,0,12.11,0,18.16,0c6.18,0,12.36,0,18.55,0c6.29,0,12.59,0,18.88,0c6.39,0,12.78,0,19.17,0
			c6.47,0,12.94,0,19.41,0c6.53,0,13.07,0,19.6,0c6.58,0,13.17,0,19.75,0c6.62,0,13.23,0,19.85,0c6.63,0,13.27,0,19.9,0
			c6.64,0,13.27,0,19.91,0c6.62,0,13.25,0,19.87,0c6.59,0,13.19,0,19.78,0c6.55,0,13.1,0,19.65,0c6.49,0,12.98,0,19.47,0
			c6.41,0,12.82,0,19.24,0c6.32,0,12.64,0,18.96,0c6.21,0,12.43,0,18.64,0c6.09,0,12.18,0,18.27,0c5.95,0,11.9,0,17.85,0
			c5.8,0,11.59,0,17.39,0c5.63,0,11.25,0,16.88,0c5.44,0,10.88,0,16.33,0c5.24,0,10.48,0,15.72,0c5.02,0,10.05,0,15.07,0
			c4.79,0,9.58,0,14.37,0c4.54,0,9.09,0,13.63,0c4.28,0,8.56,0,12.84,0c4,0,8,0,12,0c3.7,0,7.41,0,11.11,0c3.39,0,6.79,0,10.18,0
			c3.07,0,6.14,0,9.2,0c2.73,0,5.45,0,8.18,0c2.37,0,4.74,0,7.1,0c1.99,0,3.99,0,5.98,0c1.61,0,3.21,0,4.82,0c1.2,0,2.4,0,3.6,0
			c0.78,0,1.56,0.01,2.34,0c3.49-0.03,7.07-0.84,10.38-2.17c3.48-1.4,7.3-3.73,8.93-8.01
			C1852.36,2841.64,1850.81,2845.29,1834.99,2845.29z"/>
		<path class="st16" d="M1448.46,2737.13h50.32c2,0,3.63-1.63,3.63-3.63v-8.19c0-2-1.63-3.63-3.63-3.63h-50.32
			c-2,0-3.63,1.63-3.63,3.63v8.19C1444.83,2735.5,1446.47,2737.13,1448.46,2737.13z"/>
		<g>
			<g>
				<g>
					<polygon class="st17" points="1558.67,2779.54 1549.6,2773.87 1486.36,2773.87 1494.14,2779.54 					"/>
					<polygon class="st17" points="1344.44,2779.54 1339.26,2773.87 1274.91,2773.87 1278.79,2779.54 					"/>
					<polygon class="st17" points="1487.28,2779.54 1479.51,2773.87 1415.85,2773.87 1422.33,2779.54 					"/>
					<polygon class="st17" points="1415.88,2779.54 1409.4,2773.87 1345.36,2773.87 1350.54,2779.54 					"/>
					<polygon class="st17" points="1399.44,2765.14 1337.39,2765.14 1342.58,2770.82 1405.92,2770.82 					"/>
					<polygon class="st17" points="1331.29,2765.14 1268.93,2765.14 1272.82,2770.82 1336.47,2770.82 					"/>
					<polygon class="st17" points="1272.97,2779.54 1269.09,2773.87 1204.49,2773.87 1207.08,2779.54 					"/>
					<polygon class="st17" points="1197.49,2770.82 1194.9,2765.14 1132.12,2765.14 1133.41,2770.82 					"/>
					<polygon class="st17" points="1199.11,2762.1 1261.02,2762.1 1257.14,2756.42 1196.52,2756.42 					"/>
					<polygon class="st17" points="1256.98,2747.7 1260.87,2753.37 1320.54,2753.37 1315.36,2747.7 					"/>
					<polygon class="st17" points="1267,2770.82 1263.11,2765.14 1200.5,2765.14 1203.1,2770.82 					"/>
					<polygon class="st17" points="1201.47,2779.54 1198.88,2773.87 1134.11,2773.87 1135.41,2779.54 					"/>
					<polygon class="st17" points="1192.54,2747.7 1195.13,2753.37 1255.05,2753.37 1251.16,2747.7 					"/>
					<path class="st17" d="M1252.18,2740.69l2.71,3.96h57.68l-2.99-3.27c-0.2-0.22-0.29-0.46-0.29-0.69H1252.18z"/>
					<path class="st17" d="M1191.15,2744.65h57.93l-2.34-3.42c-0.12-0.18-0.17-0.36-0.17-0.55h-57.22L1191.15,2744.65z"/>
					<path class="st17" d="M1063.77,2744.65h58.19l-0.86-3.77c-0.01-0.07-0.01-0.13-0.01-0.19h-57.32V2744.65z"/>
					<path class="st17" d="M1126.53,2740.69l0.9,3.96h58.1l-1.64-3.59c-0.06-0.13-0.08-0.25-0.08-0.38H1126.53z"/>
					<polygon class="st17" points="1630.04,2779.54 1619.67,2773.87 1556.89,2773.87 1565.97,2779.54 					"/>
					<polygon class="st17" points="861.09,2762.1 923,2762.1 925.6,2756.42 864.98,2756.42 					"/>
					<polygon class="st17" points="929.58,2747.7 870.96,2747.7 867.07,2753.37 926.99,2753.37 					"/>
					<polygon class="st17" points="1515.07,2747.7 1524.14,2753.37 1582.24,2753.37 1571.87,2747.7 					"/>
					<polygon class="st17" points="1590.02,2753.37 1652.39,2753.37 1640.83,2747.7 1579.65,2747.7 					"/>
					<polygon class="st17" points="1676.37,2765.14 1611.51,2765.14 1621.88,2770.82 1687.94,2770.82 					"/>
					<path class="st17" d="M1446.34,2744.65h56.57l-4.71-2.95c-0.47-0.29-0.68-0.65-0.68-1.02h-56.6L1446.34,2744.65z"/>
					<path class="st17" d="M1377.97,2740.69l4.52,3.96h56.99l-4.16-3.04c-0.38-0.28-0.55-0.6-0.55-0.93H1377.97z"/>
					<path class="st17" d="M1318.68,2744.65h57.36l-3.59-3.14c-0.29-0.25-0.42-0.54-0.42-0.82h-56.97L1318.68,2744.65z"/>
					<path class="st17" d="M768.79,2782.59h-66.03l-8.22,7.2h68.01c0-0.24,0.1-0.48,0.3-0.69L768.79,2782.59z"/>
					<path class="st17" d="M1503.86,2740.69l6.33,3.96h56.11l-5.25-2.87c-0.55-0.3-0.82-0.69-0.82-1.09H1503.86z"/>
					<polygon class="st17" points="1063.77,2762.1 1125.94,2762.1 1124.65,2756.42 1063.77,2756.42 					"/>
					<path class="st17" d="M551.28,2782.59h-64.77l-13.15,7.2h67.34c0-0.38,0.25-0.74,0.69-1.02L551.28,2782.59z"/>
					<path class="st17" d="M618.25,2740.69h-56.38c0,0.4-0.27,0.79-0.82,1.09l-5.25,2.87h56.11L618.25,2740.69z"/>
					<polygon class="st17" points="1063.77,2747.7 1063.77,2753.37 1123.95,2753.37 1122.66,2747.7 					"/>
					<polygon class="st17" points="1063.77,2770.82 1127.94,2770.82 1126.64,2765.14 1063.77,2765.14 					"/>
					<polygon class="st17" points="801.58,2753.37 861.25,2753.37 865.14,2747.7 806.76,2747.7 					"/>
					<path class="st17" d="M623.81,2782.59h-65.23l-11.51,7.2h67.58c0-0.34,0.2-0.66,0.56-0.93L623.81,2782.59z"/>
					<path class="st17" d="M913.65,2782.59h-66.59l-4.93,7.2h68.32c0-0.13,0.03-0.25,0.08-0.38L913.65,2782.59z"/>
					<polygon class="st17" points="1266.84,2762.1 1328.51,2762.1 1323.32,2756.42 1262.96,2756.42 					"/>
					<polygon class="st17" points="1063.77,2779.54 1129.93,2779.54 1128.63,2773.87 1063.77,2773.87 					"/>
					<path class="st17" d="M696.31,2782.59h-65.65l-9.86,7.2h67.81c0-0.29,0.15-0.58,0.43-0.82L696.31,2782.59z"/>
					<path class="st17" d="M841.24,2782.59h-66.34l-6.57,7.2h68.18c0-0.19,0.06-0.37,0.18-0.55L841.24,2782.59z"/>
					<polygon class="st17" points="1462.46,2756.42 1470.23,2762.1 1530.79,2762.1 1521.71,2756.42 					"/>
					<polygon class="st17" points="1450.51,2747.7 1458.29,2753.37 1516.84,2753.37 1507.77,2747.7 					"/>
					<polygon class="st17" points="1529.01,2756.42 1538.08,2762.1 1598.17,2762.1 1587.8,2756.42 					"/>
					<polygon class="st17" points="1385.97,2747.7 1392.45,2753.37 1451.43,2753.37 1443.66,2747.7 					"/>
					<polygon class="st17" points="1658.6,2756.42 1595.58,2756.42 1605.95,2762.1 1670.16,2762.1 					"/>
					<polygon class="st17" points="1321.46,2747.7 1326.64,2753.37 1386,2753.37 1379.52,2747.7 					"/>
					<polygon class="st17" points="1186.93,2747.7 1128.13,2747.7 1129.43,2753.37 1189.52,2753.37 					"/>
					<polygon class="st17" points="1463.38,2762.1 1455.61,2756.42 1395.93,2756.42 1402.41,2762.1 					"/>
					<polygon class="st17" points="1329.43,2756.42 1334.61,2762.1 1395.96,2762.1 1389.48,2756.42 					"/>
					<polygon class="st17" points="1193.5,2762.1 1190.91,2756.42 1130.13,2756.42 1131.42,2762.1 					"/>
					<polygon class="st17" points="1475.33,2770.82 1467.56,2765.14 1405.89,2765.14 1412.37,2770.82 					"/>
					<polygon class="st17" points="1614.1,2770.82 1603.74,2765.14 1542.95,2765.14 1552.02,2770.82 					"/>
					<polygon class="st17" points="1544.73,2770.82 1535.66,2765.14 1474.41,2765.14 1482.18,2770.82 					"/>
					<polygon class="st17" points="853.19,2765.14 790.83,2765.14 785.64,2770.82 849.3,2770.82 					"/>
					<polygon class="st17" points="539.88,2753.37 597.98,2753.37 607.05,2747.7 550.25,2747.7 					"/>
					<path class="st17" d="M623.92,2741.7l-4.71,2.95h56.57l5.43-3.96h-56.6C624.61,2741.05,624.39,2741.41,623.92,2741.7z"/>
					<path class="st17" d="M686.79,2741.61l-4.16,3.04h56.99l4.52-3.96h-56.81C687.34,2741.01,687.17,2741.34,686.79,2741.61z"/>
					<polygon class="st17" points="793.61,2762.1 855.27,2762.1 859.16,2756.42 798.79,2756.42 					"/>
					<polygon class="st17" points="494.67,2773.87 427.97,2773.87 416.4,2779.54 484.3,2779.54 					"/>
					<path class="st17" d="M812.53,2741.38l-2.99,3.27h57.68l2.71-3.96h-57.12C812.82,2740.92,812.73,2741.16,812.53,2741.38z"/>
					<path class="st17" d="M938.22,2741.06l-1.64,3.59h58.1l0.9-3.96h-57.29C938.29,2740.81,938.27,2740.94,938.22,2741.06z"/>
					<path class="st17" d="M1058.34,2740.69h-57.32c0,0.06,0.01,0.13-0.01,0.19l-0.86,3.77h58.19V2740.69z"/>
					<polygon class="st17" points="1058.34,2747.7 999.46,2747.7 998.16,2753.37 1058.34,2753.37 					"/>
					<path class="st17" d="M749.66,2741.51l-3.59,3.14h57.36l3.62-3.96h-56.97C750.09,2740.97,749.95,2741.25,749.66,2741.51z"/>
					<path class="st17" d="M875.38,2741.23l-2.34,3.42h57.93l1.81-3.96h-57.22C875.56,2740.87,875.51,2741.05,875.38,2741.23z"/>
					<path class="st17" d="M467.58,2788.7l11.16-6.11H410.2l-14.67,7.2h71.23C466.76,2789.38,467.05,2788.99,467.58,2788.7z"/>
					<polygon class="st17" points="1574.08,2744.65 1634.62,2744.65 1626.54,2740.69 1566.84,2740.69 					"/>
					<polygon class="st17" points="1694.15,2773.87 1627.45,2773.87 1637.82,2779.54 1705.71,2779.54 					"/>
					<path class="st17" d="M1635.6,2782.59h-64.77l9.88,6.18c0.45,0.28,0.69,0.64,0.69,1.02h67.34L1635.6,2782.59z"/>
					<path class="st17" d="M1643.38,2782.59l11.16,6.11c0.52,0.29,0.82,0.68,0.82,1.09h71.23l-14.67-7.2H1643.38z"/>
					<polygon class="st17" points="1058.34,2756.42 997.47,2756.42 996.17,2762.1 1058.34,2762.1 					"/>
					<polygon class="st17" points="548.03,2744.65 555.27,2740.69 495.58,2740.69 487.5,2744.65 					"/>
					<path class="st17" d="M1275.06,2782.59h-66.59l3.11,6.82c0.06,0.12,0.08,0.25,0.08,0.38h68.32L1275.06,2782.59z"/>
					<path class="st17" d="M1347.22,2782.59h-66.34l4.56,6.65c0.12,0.17,0.18,0.36,0.18,0.55h68.18L1347.22,2782.59z"/>
					<path class="st17" d="M1491.46,2782.59h-65.65l7.28,6.38c0.28,0.25,0.43,0.53,0.43,0.82h67.81L1491.46,2782.59z"/>
					<path class="st17" d="M1563.54,2782.59h-65.23l8.59,6.27c0.36,0.27,0.56,0.59,0.56,0.93h67.58L1563.54,2782.59z"/>
					<path class="st17" d="M1419.35,2782.59h-66.03l5.94,6.51c0.2,0.21,0.3,0.45,0.3,0.69h68.01L1419.35,2782.59z"/>
					<polygon class="st17" points="469.73,2753.37 532.1,2753.37 542.47,2747.7 481.29,2747.7 					"/>
					<polygon class="st17" points="591.33,2762.1 651.88,2762.1 659.66,2756.42 600.4,2756.42 					"/>
					<polygon class="st17" points="1058.34,2765.14 995.48,2765.14 994.18,2770.82 1058.34,2770.82 					"/>
					<polygon class="st17" points="670.68,2753.37 729.67,2753.37 736.15,2747.7 678.46,2747.7 					"/>
					<polygon class="st17" points="523.95,2762.1 584.03,2762.1 593.11,2756.42 534.31,2756.42 					"/>
					<polygon class="st17" points="510.6,2765.14 445.74,2765.14 434.18,2770.82 500.24,2770.82 					"/>
					<polygon class="st17" points="451.95,2762.1 516.17,2762.1 526.54,2756.42 463.52,2756.42 					"/>
					<polygon class="st17" points="716.23,2765.14 654.56,2765.14 646.78,2770.82 709.75,2770.82 					"/>
					<polygon class="st17" points="647.71,2765.14 586.46,2765.14 577.39,2770.82 639.93,2770.82 					"/>
					<polygon class="st17" points="508.01,2770.82 570.09,2770.82 579.16,2765.14 518.38,2765.14 					"/>
					<polygon class="st17" points="736.12,2753.37 795.47,2753.37 800.66,2747.7 742.6,2747.7 					"/>
					<polygon class="st17" points="792.69,2756.42 732.64,2756.42 726.16,2762.1 787.51,2762.1 					"/>
					<polygon class="st17" points="726.19,2756.42 666.51,2756.42 658.73,2762.1 719.71,2762.1 					"/>
					<polygon class="st17" points="556.15,2779.54 565.22,2773.87 502.45,2773.87 492.08,2779.54 					"/>
					<polygon class="st17" points="605.27,2753.37 663.83,2753.37 671.61,2747.7 614.34,2747.7 					"/>
					<polygon class="st17" points="921.61,2765.14 859.01,2765.14 855.12,2770.82 919.02,2770.82 					"/>
					<polygon class="st17" points="991.99,2756.42 931.2,2756.42 928.61,2762.1 990.69,2762.1 					"/>
					<polygon class="st17" points="988.01,2773.87 923.24,2773.87 920.65,2779.54 986.71,2779.54 					"/>
					<polygon class="st17" points="990,2765.14 927.22,2765.14 924.63,2770.82 988.7,2770.82 					"/>
					<polygon class="st17" points="993.98,2747.7 935.19,2747.7 932.6,2753.37 992.69,2753.37 					"/>
					<polygon class="st17" points="635.76,2773.87 572.52,2773.87 563.45,2779.54 627.98,2779.54 					"/>
					<polygon class="st17" points="1058.34,2773.87 993.48,2773.87 992.19,2779.54 1058.34,2779.54 					"/>
					<polygon class="st17" points="706.27,2773.87 642.61,2773.87 634.83,2779.54 699.79,2779.54 					"/>
					<polygon class="st17" points="776.76,2773.87 712.72,2773.87 706.24,2779.54 771.57,2779.54 					"/>
					<polygon class="st17" points="784.72,2765.14 722.68,2765.14 716.2,2770.82 779.54,2770.82 					"/>
					<polygon class="st17" points="847.21,2773.87 782.86,2773.87 777.68,2779.54 843.32,2779.54 					"/>
					<polygon class="st17" points="917.63,2773.87 853.03,2773.87 849.14,2779.54 915.04,2779.54 					"/>
					<polygon class="st17" points="1202.86,2782.59 1136.1,2782.59 1130.62,2782.59 1063.77,2782.59 1058.34,2782.59 
						991.49,2782.59 986.02,2782.59 919.25,2782.59 915.97,2789.79 984.39,2789.79 989.85,2789.79 1058.34,2789.79 1063.77,2789.79 
						1132.27,2789.79 1137.72,2789.79 1206.15,2789.79 					"/>
				</g>
				<polygon class="st17" points="1193.51,2795.41 1061.06,2795.41 928.61,2795.41 915.97,2823.26 1061.06,2823.26 1206.16,2823.26 
									"/>
			</g>
		</g>
		<path class="st16" d="M673.66,2737.13h-50.32c-2,0-3.63-1.63-3.63-3.63v-8.19c0-2,1.63-3.63,3.63-3.63h50.32
			c2,0,3.63,1.63,3.63,3.63v8.19C677.28,2735.5,675.65,2737.13,673.66,2737.13z"/>
	</g>
	<g>
		<path class="st2" d="M1334.07,2434.97l-244.31-64.66l141.05,209.66C1280.91,2546.2,1318.24,2494.95,1334.07,2434.97z"/>
		<path class="st18" d="M1205.2,2086.65l-128.03,217.86l244.31,64.66c5.45-20.64,8.36-42.31,8.36-64.66
			C1329.84,2211.69,1279.79,2130.58,1205.2,2086.65z"/>
		<path class="st19" d="M1129.71,2532.73l-141.05-209.67l128.03-217.86c-37.55-22.11-81.3-34.81-128.03-34.81
			c-139.55,0-252.67,113.12-252.67,252.67s113.12,252.67,252.67,252.67c53.48,0,103.07-16.63,143.91-44.98
			C1131.62,2531.41,1130.67,2532.08,1129.71,2532.73z"/>
		<path class="st20" d="M1336.18,2437.18c-21.57-4.65-42.47-9.42-63.15-14.24l-15.46-3.62l-15.33-3.7
			c-10.24-2.43-20.33-4.99-30.45-7.52c-20.25-5.03-40.18-10.4-60-16.36c-19.82-5.92-39.73-12.18-59.93-17.83l1.83-2.58
			c11.51,17.64,23.35,35.05,35.5,52.26l36.79,51.39c12.25,17.14,24.14,34.52,36.14,51.82c11.97,17.33,23.91,34.67,35.64,52.16
			l-7.4-1.44c12.29-8.31,24.01-17.51,34.74-27.8c10.85-10.17,20.73-21.37,29.73-33.27c8.95-11.94,16.94-24.64,23.84-37.97
			l4.96-10.12l4.59-10.32l4.13-10.52C1333.49,2444.21,1334.89,2440.84,1336.18,2437.18z M1337.05,2436.68
			c-0.81,3.61-1.52,7.53-2.5,11.5l-3.16,11.01l-3.66,10.87c-1.36,3.57-2.83,7.11-4.24,10.67c-6,14.1-13.38,27.68-22.03,40.42
			c-8.6,12.79-18.53,24.69-29.4,35.68c-10.97,10.87-22.87,20.88-35.72,29.52l-4.42,2.97l-2.98-4.42
			c-11.78-17.45-23.35-35.05-34.89-52.67c-11.51-17.64-23.12-35.21-34.38-53.01l-33.74-53.44c-11.35-17.74-23.03-35.27-35.02-52.58
			l-2.54-3.67l4.38,1.09c20.52,5.13,41.33,9.64,62.23,14.5c20.9,4.82,41.69,10.23,62.16,15.97c10.24,2.86,20.51,5.69,30.63,8.65
			l15.21,4.38l15.07,4.46C1298.08,2424.54,1317.89,2430.55,1337.05,2436.68z"/>
		<path class="st20" d="M1200.16,2090.23c-10.34,19.28-20.62,38.07-30.85,56.68l-15.36,27.72l-15.4,27.39
			c-10.34,18.12-20.63,36.2-31.21,54.03c-10.63,17.79-21.61,35.39-32.75,53.07l-1.81-4.41l30.31,8.93
			c10.12,2.93,20.24,5.82,30.41,8.58c20.31,5.59,40.71,10.79,61.15,15.89l61.46,14.71c20.51,4.82,40.95,9.89,61.37,15.05l-5.55,3.23
			c6.61-26.02,8.88-53.07,6.9-79.77c-0.26-3.33-0.66-6.66-0.98-9.99c-0.4-3.32-0.53-6.68-1.2-9.96c-1.19-6.58-2.06-13.23-3.74-19.71
			l-2.26-9.78l-2.9-9.61c-1.73-6.48-4.42-12.63-6.65-18.95c-0.54-1.59-1.22-3.12-1.91-4.65l-2.04-4.6l-2.04-4.6
			c-0.67-1.54-1.34-3.08-2.15-4.54c-3.17-5.91-6.03-12-9.65-17.67l-5.2-8.64l-5.73-8.3l-2.87-4.16c-1-1.35-2.07-2.65-3.09-3.99
			l-6.22-7.98c-2.12-2.62-4.44-5.07-6.66-7.62c-2.27-2.49-4.4-5.14-6.85-7.46l-7.16-7.19c-2.32-2.48-5.01-4.55-7.49-6.86
			c-2.55-2.23-4.99-4.61-7.65-6.72l-8.01-6.31c-1.33-1.02-2.68-2.17-4.01-3.09l-3.98-2.81L1200.16,2090.23z M1199.91,2089.27
			l9.07,5.02l4.68,2.68c1.56,0.91,2.89,1.9,4.35,2.84l8.58,5.74c2.86,1.93,5.5,4.14,8.27,6.2c5.58,4.08,10.64,8.77,15.83,13.35
			c2.67,2.22,4.98,4.79,7.44,7.23c2.4,2.49,4.92,4.88,7.23,7.46c18.55,20.56,33.98,44.15,44.9,69.81l3.84,9.72
			c1.36,3.22,2.38,6.55,3.43,9.87l3.18,9.97l2.52,10.16c1.91,6.73,2.73,13.68,3.96,20.54c0.69,3.43,0.83,6.92,1.23,10.39
			c0.33,3.47,0.74,6.94,1,10.42c1.65,27.86-1.36,55.94-8.71,82.77l-1.21,4.43l-4.34-1.2c-20.3-5.61-40.57-11.32-60.78-17.28
			l-60.69-17.62c-20.28-5.68-40.59-11.26-61-16.44c-10.2-2.63-20.43-5.13-30.67-7.59l-30.76-7.23l-3.74-0.88l1.93-3.53
			c10.2-18.63,20.56-37.34,31.27-55.86c10.76-18.48,21.8-36.71,32.8-54.9l16.6-27.07l16.65-26.75
			C1177.85,2123.82,1188.91,2106.3,1199.91,2089.27z"/>
		<path class="st20" d="M1129.96,2537.64l-72.13-102.76l-36.25-52.31l-36.09-52.71l-1.5-2.19l1.36-2.34l31.81-54.58
			c10.71-18.13,21.31-36.33,32.17-54.37c10.76-18.1,21.71-36.09,32.64-54.09l32.79-54.01l0.94,3.63
			c-19.04-11.57-39.67-20.7-61.23-26.65c-21.53-6.07-43.95-8.95-66.34-8.92c-44.79,0.18-89.46,12.82-127.39,36.36
			c-38.03,23.38-69.26,57.1-90.2,96.14c-20.7,39.18-31.04,83.71-29.01,127.89c1.84,44.13,15.54,87.65,39.57,124.65
			c23.76,37.16,57.55,67.87,96.95,87.99l3.68,1.91l3.76,1.74c2.52,1.15,5,2.36,7.54,3.46c5.14,2.03,10.21,4.29,15.48,5.99
			c10.4,3.82,21.15,6.58,31.98,8.95c21.73,4.32,44.03,6.27,66.26,4.98c44.46-2.42,88.28-16.99,125.84-41.71l0.67,0.96
			C1132.17,2536.37,1131.03,2537.04,1129.96,2537.64z M1130.16,2536.66c0.85-0.72,1.61-1.37,2.43-1.97l0.67,0.96
			c-18.22,13.36-38.41,24.08-59.64,32.12c-21.26,8.05-43.73,12.8-66.43,14.82c-22.72,2-45.74,0.78-68.23-3.39
			c-11.21-2.24-22.38-4.9-33.21-8.65c-5.49-1.67-10.77-3.9-16.13-5.91c-2.65-1.09-5.25-2.29-7.88-3.44l-3.93-1.74l-3.85-1.91
			c-41.34-19.98-76.78-51.84-101.81-90.39c-12.56-19.28-22.24-40.36-29.25-62.26c-0.85-2.75-1.57-5.53-2.35-8.3l-1.16-4.15
			c-0.37-1.39-0.65-2.8-0.98-4.2l-1.9-8.41l-1.49-8.49l-0.74-4.25c-0.21-1.42-0.36-2.85-0.54-4.27l-1.04-8.55l-0.63-8.59
			c-0.22-2.86-0.42-5.73-0.43-8.6c-1.61-45.89,9.44-92.15,31.71-132.18c22.19-40.11,55.57-73.58,94.84-96.51
			c39.32-22.99,84.66-34.87,129.95-35.07c45.32-0.25,90.67,11.51,130.27,34.01l2.27,1.29l-1.33,2.34l-31.23,54.92
			c-10.41,18.31-20.8,36.63-31.37,54.84c-10.48,18.27-21.22,36.38-31.85,54.56l-32.21,54.35l-0.14-4.53l34.43,52.12l34.27,52.52
			L1130.16,2536.66z"/>
		<g>
			<path class="st10" d="M828.95,2306.14c6.38,0.13,12.92,0.13,19.62,0.01c1.42,0,2.45,0.49,3.09,1.46
				c0.64,0.97,0.51,2.31-0.39,4.01c-5.41,10.92-10.73,21.44-15.95,31.55c-5.22,10.12-8.99,20.46-11.31,31.03
				c-0.39,1.29-1.87,2.16-4.45,2.61c-2.58,0.45-3.55-0.68-2.9-3.38c2.32-10.31,6.09-20.46,11.31-30.45
				c5.22-9.99,10.21-20.13,14.98-30.45c-4,0-8.77-0.12-14.31-0.36c-5.54-0.24-10.89-0.61-16.05-1.1c-2.32-0.24-3.58-1.35-3.77-3.32
				c-0.19-1.97,0.74-2.83,2.8-2.57C816.8,2305.7,822.57,2306.02,828.95,2306.14z"/>
			<path class="st10" d="M895.16,2305.76c2.58,2.32,3.87,4.77,3.87,7.35c0,3.61-1.29,6.9-3.87,9.86c-2.58,2.97-6.64,5.67-12.18,8.12
				c3.74,0.65,6.77,2.03,9.09,4.16c2.32,2.13,3.48,4.42,3.48,6.86c0,6.32-3.87,13.24-11.6,20.78c-7.73,7.54-16.69,12.92-26.87,16.14
				c-1.81,0.51-3.29-0.1-4.45-1.84c-1.16-1.74-0.45-3.06,2.13-3.96c9.79-3.48,17.81-8.41,24.07-14.79
				c6.25-6.38,9.38-11.37,9.38-14.98c0-2.83-2.1-4.9-6.28-6.19c-4.19-1.29-10.02-1.74-17.49-1.35c-1.16,0-1.9-0.97-2.22-2.9
				c-0.32-1.93,0.29-2.96,1.84-3.09c8.25-1.42,14.92-3.67,20.01-6.77c5.09-3.09,7.64-6.31,7.64-9.67c0-1.29-0.84-2.42-2.51-3.38
				c-1.68-0.97-4-1.45-6.96-1.45c-2.84,0-5.9,0.45-9.18,1.35c-3.29,0.9-6.48,2-9.57,3.29c-0.9,0.39-1.93-0.06-3.09-1.35
				c-1.16-1.29-0.58-2.52,1.74-3.69c3.35-1.86,6.93-3.32,10.73-4.39c3.8-1.06,7.31-1.59,10.54-1.59
				C888.65,2302.28,892.58,2303.44,895.16,2305.76z"/>
			<path class="st10" d="M944.46,2310.59c4.64,0.39,8.44-1.74,11.41-6.38c1.03-1.8,2.67-2.45,4.93-1.93
				c2.25,0.52,3.12,1.16,2.61,1.93c-7.09,12.37-14.57,24.84-22.42,37.41c-7.86,12.57-15.66,25.03-23.39,37.41
				c-1.16,1.93-2.77,2.45-4.83,1.55c-2.06-0.9-2.45-2.26-1.16-4.06c6.7-10.83,13.24-21.29,19.62-31.41
				c6.38-10.12,12.66-20.46,18.85-31.03c-2.06,1.16-4.35,1.81-6.86,1.93c-2.51,0.13-4.8,0.13-6.86,0
				c-1.68,8.77-4.42,15.18-8.22,19.23c-3.8,4.06-8.35,6.09-13.63,6.09c-2.97,0-5.29-0.77-6.96-2.32c-1.68-1.55-2.51-4.12-2.51-7.73
				c0-7.35,3.29-13.85,9.86-19.52c6.57-5.67,11.92-8.76,16.04-9.28c2.06-0.26,3.12,0.13,3.19,1.16c0.06,1.03-0.68,1.93-2.22,2.71
				c-0.52,0.26-0.26,0.68,0.77,1.26c1.03,0.58,2,1.13,2.9,1.64C936.85,2309.76,939.82,2310.21,944.46,2310.59z M916.52,2319.39
				c-2.77,4.19-4.16,8.02-4.16,11.5c0,1.29,0.32,2.29,0.97,3c0.64,0.71,1.42,1.06,2.32,1.06c2.58,0,5.7-1.77,9.38-5.32
				c3.67-3.54,5.64-8.6,5.9-15.18c-1.16-0.26-2.22-0.71-3.19-1.35c-0.97-0.64-1.9-1.29-2.8-1.93
				C922.1,2312.46,919.29,2315.2,916.52,2319.39z M968.04,2338.43c0,0.65-0.32,1.1-0.97,1.35l-2.13,0.77
				c1.55-0.26,3.45,0.16,5.7,1.26c2.25,1.1,3.38,2.61,3.38,4.54c0,7.48-2.26,14.21-6.77,20.2c-4.51,5.99-10.18,8.99-17.01,8.99
				c-2.97,0-5.29-0.94-6.96-2.8c-1.68-1.87-2.51-4.61-2.51-8.22c0-7.35,3.12-13.56,9.38-18.65c6.25-5.09,11.44-7.76,15.56-8.02
				C967.27,2337.6,968.04,2337.79,968.04,2338.43z M957.95,2347.03c-2.57,1.35-4.67,4.48-6.29,9.38c-0.13,0.52-0.5,0.65-1.13,0.39
				c-0.63-0.26-0.88-0.97-0.75-2.13c-1,1.68-1.79,3.32-2.35,4.93c-0.56,1.61-0.85,3.26-0.85,4.93c0,1.42,0.28,2.55,0.85,3.38
				c0.56,0.84,1.22,1.26,1.97,1.26c3.88,0,7.73-2.22,11.55-6.67c3.82-4.45,5.73-9.63,5.73-15.56c0-0.64-0.34-1.13-1.03-1.45
				c-0.69-0.32-1.35-0.48-1.97-0.48C962.43,2345,960.52,2345.68,957.95,2347.03z"/>
		</g>
	</g>
	<g>
		<rect x="169.19" y="682.72" class="st1" width="452.67" height="540.12"/>
		
			<rect x="175.93" y="776.91" transform="matrix(-1.836970e-16 1 -1 -1.836970e-16 1348.3092 557.257)" class="st0" width="439.19" height="351.74"/>
	</g>
</g>
<rect x="3044.43" class="st19" width="554.07" height="554.07"/>
<rect x="3044.43" y="632.57" class="st18" width="554.07" height="554.07"/>
<rect x="3044.43" y="1265.14" class="st12" width="554.07" height="554.07"/>
<rect x="3044.43" y="1950.88" class="st2" width="554.07" height="554.07"/>
</svg>
