<svg id="Layer_1" data-name="Layer 1" xmlns="http://www.w3.org/2000/svg" viewBox="0 0 500 100"><defs><style>.cls-1{fill:#888eb0;fill-rule:evenodd;}.cls-2{fill:#1f2138;}</style></defs><path class="cls-1" d="M17.32,15.57h7.11l-.17,54.68v10.6l-14-7.11-.06-52.35c0-3.21,3.21-5.85,7.13-5.82Z"/><path class="cls-1" d="M56.15,29.64a16.73,16.73,0,0,0-6.64-13.4,3,3,0,0,0-1.76-.6l-16.53-.06a2.93,2.93,0,0,0-1.71.55l-.15.11h0a2.87,2.87,0,0,0-1,2.19l-.12,22.16a2.9,2.9,0,0,0,1.12,2.3A16.75,16.75,0,0,0,56.15,29.64Z"/><path class="cls-1" d="M36.75,56.91l16,.06A3.34,3.34,0,0,1,55.6,59l4.52,12.38c.42,1.14-.15,2.07-1.3,2l-16-.07A3.26,3.26,0,0,1,40,71.33l-4.53-12.4a1.38,1.38,0,0,1,1.31-2Z"/><path class="cls-2" d="M80.91,68.39a16.31,16.31,0,0,1-7.12-7,23,23,0,0,1-2.46-11V45.26a25.85,25.85,0,0,1,2.35-11.53,16.3,16.3,0,0,1,6.84-7.28A22,22,0,0,1,91.37,24a17.31,17.31,0,0,1,10.21,3,18.34,18.34,0,0,1,6.47,8.66,37.67,37.67,0,0,1,2.22,13.7v3H79.13V44.16H99.3l-.13-1A10.57,10.57,0,0,0,96.7,37a6.9,6.9,0,0,0-5.33-2.15,8.67,8.67,0,0,0-6.73,2.59c-1.6,1.72-2.39,4.16-2.39,7.32v5.79a9.6,9.6,0,0,0,2.61,7.19,10,10,0,0,0,7.3,2.54,13.79,13.79,0,0,0,4.78-.86A14.43,14.43,0,0,0,101.23,57l7.85,7a26,26,0,0,1-8,5,23.71,23.71,0,0,1-8.94,1.78A24.47,24.47,0,0,1,80.91,68.39Z"/><path class="cls-2" d="M128.92,68.3a16.39,16.39,0,0,1-7-7.21,24.86,24.86,0,0,1-2.42-11.4V44.82a24.32,24.32,0,0,1,2.42-11.29,16.34,16.34,0,0,1,7-7.12A23.41,23.41,0,0,1,140,24a28.12,28.12,0,0,1,7,.85A21.68,21.68,0,0,1,153,27.28a15.86,15.86,0,0,1,4.38,3.95l-7.76,7.54a12.08,12.08,0,0,0-3.9-2.39,13,13,0,0,0-4.69-.85c-3,0-5.4.81-7.06,2.43a9.12,9.12,0,0,0-2.5,6.86v4.87c0,3,.83,5.38,2.5,7s4,2.47,7.06,2.47a12.19,12.19,0,0,0,4.73-.92,11,11,0,0,0,3.86-2.63l7.76,8A16.3,16.3,0,0,1,153,67.51,21.36,21.36,0,0,1,147.05,70a28.72,28.72,0,0,1-7,.83A23.29,23.29,0,0,1,128.92,68.3Z"/><path class="cls-2" d="M173.78,68.39a16.31,16.31,0,0,1-7.12-7,23,23,0,0,1-2.46-11V45.26a25.85,25.85,0,0,1,2.35-11.53,16.3,16.3,0,0,1,6.84-7.28A22,22,0,0,1,184.24,24a17.31,17.31,0,0,1,10.21,3,18.34,18.34,0,0,1,6.47,8.66,37.67,37.67,0,0,1,2.22,13.7v3H172V44.16h20.17l-.13-1A10.57,10.57,0,0,0,189.57,37a6.9,6.9,0,0,0-5.33-2.15,8.67,8.67,0,0,0-6.73,2.59c-1.6,1.72-2.39,4.16-2.39,7.32v5.79a9.6,9.6,0,0,0,2.61,7.19A10,10,0,0,0,185,60.3a13.79,13.79,0,0,0,4.78-.86A14.43,14.43,0,0,0,194.1,57L202,64a26,26,0,0,1-8,5A23.71,23.71,0,0,1,185,70.78,24.47,24.47,0,0,1,173.78,68.39Z"/><path class="cls-2" d="M213,6.37h12v12H213Zm0,18.24h12V70.12H213Z"/><path class="cls-2" d="M236.2,24.61h12v64h-12Zm15.7,44.13A12,12,0,0,1,247.6,63l.61-10.39A8.56,8.56,0,0,0,249,56.4a5.52,5.52,0,0,0,2.3,2.41,7.55,7.55,0,0,0,3.66.83,6.43,6.43,0,0,0,5.24-2.23,9.59,9.59,0,0,0,1.87-6.32V43.86a10,10,0,0,0-1.87-6.47,6.33,6.33,0,0,0-5.24-2.3,7.34,7.34,0,0,0-3.66.85,5.59,5.59,0,0,0-2.3,2.48,9.06,9.06,0,0,0-.79,3.95l-.92-10.09a15.28,15.28,0,0,1,4.85-6.16A11,11,0,0,1,258.78,24a13.66,13.66,0,0,1,13.51,9.12,29,29,0,0,1,1.79,10.74v7.28a28.36,28.36,0,0,1-1.79,10.64,13.72,13.72,0,0,1-13.51,9.05A11.63,11.63,0,0,1,251.9,68.74Z"/><path class="cls-2" d="M281.54,24.61h22.27V34.87H281.54ZM289,67.29q-2.77-3-2.78-9V11.37h12V55.3a4.3,4.3,0,0,0,.66,2.57,2.24,2.24,0,0,0,1.93.9h3V70.34h-6.05C293.79,70.34,290.87,69.33,289,67.29Z"/><path class="cls-2" d="M323.81,70.06a36.93,36.93,0,0,1-7.24-2.13,26.52,26.52,0,0,1-6-3.38L318,55.3a29,29,0,0,0,6.88,3.25,22.67,22.67,0,0,0,6.84,1.14,17.94,17.94,0,0,0,6.54-.95c1.55-.63,2.32-1.49,2.32-2.61a2.78,2.78,0,0,0-1-2.32A6.1,6.1,0,0,0,337,52.69a42.74,42.74,0,0,0-4.42-.59l-1.6-.18-1.65-.17-.37-.07-.37,0A49.67,49.67,0,0,1,320.43,50a10.44,10.44,0,0,1-5.2-3.71c-1.41-1.82-2.12-4.48-2.12-7.95a12.88,12.88,0,0,1,8.55-12.74A26.74,26.74,0,0,1,331.74,24a34.4,34.4,0,0,1,6.91.7,35.79,35.79,0,0,1,6.6,2,31.93,31.93,0,0,1,5.83,3.16l-7.15,8.72A29.33,29.33,0,0,0,337.71,36a23,23,0,0,0-6.23-.92,15.2,15.2,0,0,0-5.66.84c-1.34.55-2,1.33-2,2.32A2,2,0,0,0,324.88,40a8.13,8.13,0,0,0,2.67.92c1.07.19,2.63.4,4.67.63l.79.09.79.09a1.64,1.64,0,0,0,.4,0,1.54,1.54,0,0,1,.39,0,55.05,55.05,0,0,1,8.64,1.57,11.3,11.3,0,0,1,5.68,3.86q2.34,2.9,2.34,8.51A13.42,13.42,0,0,1,342.31,69a28,28,0,0,1-10.57,1.78A43.08,43.08,0,0,1,323.81,70.06Z"/><path class="cls-2" d="M354.76,24.61h11.32l15.3,39.55-7.59,9.69Zm42.05,0L376.55,80.78a14.6,14.6,0,0,1-2.82,4.93,9.62,9.62,0,0,1-4.17,2.61,20.58,20.58,0,0,1-6.12.79h-2.67V77.44h2.67a5.75,5.75,0,0,0,3.23-.85,5.23,5.23,0,0,0,1.95-2.78l16.88-49.2Z"/><path class="cls-2" d="M403,24.61h12V70.12H403Zm26.31,17.93a6.84,6.84,0,0,0-1.91-5.17,7.45,7.45,0,0,0-5.41-1.84,6.87,6.87,0,0,0-5.15,1.86A7.15,7.15,0,0,0,415,42.63L414,32.54A17.06,17.06,0,0,1,419,26.1,11.71,11.71,0,0,1,426.19,24q7.19,0,11.14,4.84c2.63,3.24,3.94,7.8,3.94,13.71V70.12h-12Z"/><path class="cls-2" d="M461.25,68.3a16.41,16.41,0,0,1-7-7.21,24.86,24.86,0,0,1-2.41-11.4V44.82a24.33,24.33,0,0,1,2.41-11.29,16.36,16.36,0,0,1,7-7.12A23.37,23.37,0,0,1,472.36,24a28.06,28.06,0,0,1,7,.85,21.43,21.43,0,0,1,5.94,2.48,15.76,15.76,0,0,1,4.39,3.95L482,38.77a12.08,12.08,0,0,0-3.9-2.39,13,13,0,0,0-4.69-.85q-4.56,0-7.06,2.43a9.16,9.16,0,0,0-2.5,6.86v4.87a9.51,9.51,0,0,0,2.5,7q2.51,2.48,7.06,2.47a12.21,12.21,0,0,0,4.74-.92A11,11,0,0,0,482,55.65l7.77,8a16.45,16.45,0,0,1-4.43,3.88A21.62,21.62,0,0,1,479.38,70a28.74,28.74,0,0,1-7,.83A23.25,23.25,0,0,1,461.25,68.3Z"/></svg>